<?xml version="1.0" encoding="UTF-8"?><svg id="Art" xmlns="http://www.w3.org/2000/svg" viewBox="0 0 1600 1200"><path d="m570.185,101.796c-62.604,0-77.247,55.186-81.598,91.759-1.001,6.878-2.505,18.286-4.512,34.23-25.149,202.15-39.904,335.573-44.257,400.259-.245,3.642,3.785,78.364,93.244,78.361,160.693-.005,222.985-111.882,222.985-111.882.432-4.219-2.292-8.222-6.623-9.472-27.527-7.948-50.967-25.134-70.314-51.56-6.027-8.622-8.859-16.014-8.49-22.178.151-2.523,1.115-4.73,2.901-6.47,5.036-4.907,14.022-3.049,17.458,2.946,23.617,41.205,60.276,61.805,109.967,61.805,49.692,0,86.35-20.6,109.967-61.805,3.436-5.994,12.422-7.853,17.458-2.946,1.786,1.74,2.75,3.948,2.901,6.47.369,6.163-2.463,13.556-8.49,22.178-19.347,26.426-42.788,43.612-70.314,51.56-4.33,1.25-7.054,5.253-6.623,9.472,0,0,62.292,111.877,222.985,111.882,89.459.003,93.489-74.719,93.244-78.361-4.353-64.686-19.108-198.109-44.257-400.259-2.007-15.944-3.511-27.352-4.512-34.23-4.351-36.573-18.994-91.759-81.598-91.759-95.463,0-193.835,138.676-222.481,182.404-3.798,5.798-12.764,5.798-16.562,0-28.646-43.728-127.018-182.404-222.481-182.404Z"/><g><path d="m361.881,1074.122c.05,2.585.186,5.176.138,7.766-.161,8.725-1.749,10.98-8.654,11.041-23.873.197-44.796.203-68.663.281-1.208.003-2.416-.195-3.615-.423-2.012-.379-3.333-1.834-3.779-3.873-.54-.982-.923-2.102-1.113-3.353-.278-1.876-.427-3.798-.437-5.691-.078-15.745-.122-31.501-.189-47.278-.233-8.935-.477-17.887-.734-26.905-.323-.551-.721-1.081-1.016-1.63-.815,1.002-1.997,1.868-2.381,3.029-1.608,4.995-3.08,10.038-4.431,15.068-5.519,20.615-11.009,40.819-16.552,60.587-.491,1.752-1.108,3.457-1.704,5.168-1.128,3.282-3.195,5.378-6.358,5.406-12.195.114-24.385.182-36.59.174-3.597-.006-6.144-2.102-7.692-5.463-.698-1.547-1.096-3.237-1.663-4.844-6.914-19.251-13.758-37.937-20.629-55.988-1.28-3.378-2.861-6.59-4.347-9.808-.135-.283-.641-.451-1.014-.452-.044.002-.113.031-.182.087.325,20.649.657,41.542.969,62.072.028,2.061.134,4.115.054,6.164-.256,6.93-1.867,8.717-8.768,8.792-23.857.229-48.253.324-72.101.465-1.193.014-2.416-.136-3.606-.295-2.278-.322-3.615-1.641-3.814-3.483-.296-2.758-.252-5.563-.254-8.342-.023-20.544-.113-40.264-.292-60.768-.105-11.06-.146-23.405-.356-34.411-.206-11.402-.08-22.89-.071-34.339-.004-1.04.096-2.114.321-3.214.59-3.088,2.918-5.909,6.351-7.498,1.917-.885,3.871-1.569,5.828-2.228,6.239-2.127,12.489-4.23,18.744-6.296,14.578-4.831,29.194-9.509,43.873-13.992.356-.105.705-.226,1.049-.32,5.974-1.824,11.945-3.603,17.937-5.359,4.34-1.257,8.683-1.765,13.029-2.571,3.624-.674,5.695,1.003,6.862,4.349,3.305,9.362,6.808,18.758,10.097,28.457,3.939,11.626,7.732,23.56,11.652,35.621.531,1.608,1.22,3.154,2.054,4.547.29.501,1.2.568,1.865.622.288.023.815-.447.952-.789.691-1.695,1.429-3.389,1.881-5.138,5.293-20.53,10.169-41.562,15.837-62.876,5.781-21.798,2.774-20.96,22.455-25.845,6.056-1.499,12.125-2.992,18.207-4.449,1.16-.345,2.345-.634,3.502-.917,19.059-4.605,38.183-8.926,57.359-13,.152-.032.324-.07.474-.101,1.632-.352,3.261-.679,4.887-1.033.402-.095.598-.119.668-.146-.033.019-.031.061.699-.012,7.16-.634,8.682,3.024,8.825,10.089.643,31.09,1.457,62.15,2.213,93.223.059,2.594.121,5.17.18,7.768-.027-.004-.055.004-.093.009.712,30.551,1.437,61.79,2.138,92.343Zm-8.669-129.921"/><path d="m606.637,1000.331c-6.454,41.182-22.581,69.243-49.35,83.341-14.465,7.652-32.813,13.972-48.375,14.327-6.83.165-10.04-.332-16.863.002-.015-.388-.026.39-.031,0-7.295-.002-11.382.241-18.667.002-16.364-.519-35.478-6.372-50.833-14.139-25.848-13.181-42.864-36.776-50.189-70.617-5.73-26.508-5.257-49.464-.527-76.953,4.608-26.703,20.281-47.009,37.896-62.846,17.204-15.43,35.995-24.658,55.747-28.999,21.201-4.68,42.456-6.125,63.686-5.5,20.52.595,36.272,10.294,52.452,27.972,9.925,10.85,16.746,25.253,21.09,42.278,2.99,11.71,5.208,23.874,5.468,36.576.418,19.731,1.579,34.89-1.506,54.555Zm-88.601-32.948c-1.097-7.819-1.753-11.358-3.283-18.964-2.681-13.4-9.484-20.991-19.009-22.341-5.509-.791-11.341.442-16.911,1.911-5.879,1.555-10.274,6.728-13.144,14.324-2.515,6.636-4.52,13.415-4.46,20.864.069,10.018.08,15.776.52,25.758.163,3.81.978,7.654,1.984,11.235,5.737,20.371,19.553,23.459,34.021,19.885,6.65-1.622,15.057-8.836,17.392-18.305,2.855-11.536,2.907-21.899,2.89-34.367Z"/><path d="m819.342,858.724c-.129,16.81-.198,33.608-.307,50.408-.027,4.978-.037,9.958-.261,14.92-.231,4.959-2.316,7.466-5.869,7.24-2.462-.166-4.924-.532-7.372-1.079-18.33-4.199-36.784-6.823-55.336-5.364-7.369.564-14.778,2.04-22.037,4.139-11.183,3.249-18.23,13.918-20.06,28.939-1.965,16.076,4.07,33.095,14.161,39.095,5.726,3.393,11.691,5.087,17.972,5.344,22.647.912,44.94-3.62,67.214-9.045,1.62-.393,3.191-1.197,4.806-1.535,4.111-.829,6.468,1.717,6.487,7.964.104,24.273.089,48.541-.095,72.803-.058,7.147-1.795,10-6.583,11.283-10.811,2.898-21.631,5.955-32.512,7.933-14.519,2.663-29.071,5.393-43.656,6.113-11.325.551-22.765-1.178-34.061-3.303-9.632-1.826-19.226-4.452-28.598-9.258-11.727-6.007-22.753-13.362-32.533-24.985-3.905-4.644-7.396-9.508-10.243-15.588-21.638-46.151-25.246-94.453-11.658-146.667,4.202-16.139,11.709-29.74,21.184-40.475,14.85-16.845,31.561-27.359,49.922-32.634,15.639-4.496,31.343-5.364,52.152-5.917,19.931-1.725,44.602,3.603,69.31,7.767,5.967,1.008,7.91,4.178,8.248,13.325.222,6.179-.225,12.386-.274,18.577Z"/><path d="m1064.242,1003.082c-7.655,39.426-24.613,66.387-51.803,80.411-14.695,7.551-33.248,14.096-48.809,14.496-6.838.171-10.038-.352-16.863-.001-.008-.409-.028.415-.031,0-7.286.006-11.401.253-18.667-.001-16.343-.561-35.293-6.984-50.436-16.009-25.479-15.194-41.93-43.467-48.431-84.113-5.082-31.794-4.036-59.181,1.444-90.673,5.345-30.668,21.747-51.084,39.991-65.12,17.82-13.719,37.042-19.438,57.045-19.658,21.462-.244,42.827,3.043,64.049,8.218,20.501,5.027,35.919,18.148,51.508,38.571,9.557,12.532,15.928,27.711,19.749,44.902,2.631,11.831,4.481,23.881,4.364,36.22-.177,19.176.542,33.92-3.11,52.757Zm-87.522-41.354c-.856-8.252-1.421-12.031-2.71-20.156-2.269-14.3-8.854-23.232-18.36-26.098-5.497-1.652-11.393-1.241-17.015-.49-5.946.784-10.518,5.712-13.618,13.551-2.718,6.865-4.926,13.988-5.095,22.11-.23,10.93-.377,17.212-.239,28.149.051,4.167.756,8.443,1.656,12.433,5.154,22.739,18.884,26.834,33.485,24.03,6.702-1.287,15.337-8.273,17.961-17.962,3.193-11.818,3.579-22.588,3.935-35.566Z"/><path d="m1250.427,1077.459c-7.002,5.417-14.463,9.587-22.573,12.079-15.595,4.792-28.634,7.959-44.539,8.476-10.401.519-40.189.02-54.764-2.034-16.327-.239-30.712-4.948-46.762-8.268-5.544-1.146-7.16-3.6-7.05-11.392.225-16.305.682-33.874,1.33-50.162.315-7.743,2.579-10.25,8.093-9.333,11.756,1.964,23.427,7.835,35.125,10.134,8.762,1.736,17.533,2.73,26.341,3.358,9.936.713,19.888.945,29.831,1.195,4.942.116,8.808-5.605,8.727-10.137-.053-3.47-3.736-6.869-7.951-7.735-3.621-.744-7.304-.954-10.982-1.257-15.065-1.265-32.822-1.91-47.663-6.591-6.357-2.006-10.184-3.923-16.184-7.449-19.655-11.522-28.429-34.09-29.374-63.466-.319-9.9.429-19.59,2.43-29.263,5.746-28.023,19.108-44.289,37.99-51.773,14.797-5.877,30.236-7.39,45.838-5.941,10.216.952,20.448,3.349,30.66,5.207,14.7,2.243,29.321,5.422,43.863,10.481,10.828,3.776,20.091,5.958,30.858,10.377,5.648,2.317,7.462,4.599,7.385,11.08-.198,16.789-.589,33.53-1.091,50.264-.164,5.205-.378,7.147-4.532,6.609-1.216-.148-2.485-.155-3.639-.652-12.307-5.356-55.526-14.503-79.088-16.493-8.285-.447-12.721,1.901-13.19,2.567-1.034,1.451-2.407,3.178-2.487,4.982-.089,1.806.888,4.514,2.009,5.623,1.97,1.945,4.36,3.292,6.7,4.294,1.939.827,4.06.798,6.086,1.18,16.651,3.166,20.835,3.873,37.439,7.42,10.255,2.197,32.335,10.334,40.599,19.248,11.168,12.076,17.28,25.388,17.639,43.241.592,28.375-7.619,49.063-27.075,64.133Z"/><path d="m1515.608,1041.102c-6.838,22.914-23.279,38.74-50.324,47.553-14.598,4.673-33.131,9.088-48.701,9.4-6.842.116-10.034-.251-16.863-.004.001-.292-.037.289-.031,0-7.282-.01-11.384.184-18.667-.003-16.328-.384-35.244-5.133-50.247-12.254-25.277-11.886-41.181-34.957-46.95-68.193-4.498-25.949-2.974-48.187,2.933-72.653,5.763-23.89,22.14-37.221,40.048-44.334,17.5-7.007,36.149-6.93,55.443-2.554,20.697,4.706,41.204,12.088,61.548,20.611,19.658,8.27,34.423,20.639,49.597,36.859,9.303,9.956,15.622,20.541,19.575,31.651,2.717,7.661,4.721,15.187,4.805,22.578.141,11.51,1.092,20.374-2.165,31.343Zm-86.103-36.084c-.851-5.759-1.39-8.408-2.665-14.167-2.224-10.115-8.634-17.327-17.883-20.833-5.346-2.028-11.082-2.653-16.582-2.985-5.796-.351-10.293,2.52-13.374,7.794-2.702,4.606-4.926,9.548-5.136,15.479-.294,7.974-.492,12.566-.428,20.583.024,3.06.688,6.241,1.55,9.247,4.919,17.115,18.531,20.83,32.949,19.897,6.637-.446,15.142-4.641,17.731-11.041,3.145-7.819,3.497-15.137,3.838-23.973Z"/></g></svg>