<?xml version="1.0" encoding="UTF-8"?>
<svg id="Art" xmlns="http://www.w3.org/2000/svg" viewBox="0 0 2000 500">
  <path d="m437.558,398.48c.064,3.319.239,6.645.177,9.97-.206,11.201-2.245,14.096-11.109,14.174-30.647.252-57.507.261-88.148.36-1.551.004-3.101-.251-4.641-.543-2.583-.486-4.279-2.355-4.852-4.972-.693-1.26-1.184-2.698-1.429-4.304-.356-2.409-.548-4.876-.561-7.306-.101-20.214-.157-40.44-.243-60.694-.299-11.47-.612-22.963-.942-34.54-.414-.707-.925-1.388-1.305-2.093-1.046,1.286-2.564,2.397-3.057,3.889-2.064,6.413-3.954,12.886-5.688,19.344-7.086,26.465-14.133,52.402-21.248,77.779-.63,2.249-1.422,4.438-2.188,6.634-1.448,4.214-4.101,6.905-8.163,6.94-15.656.146-31.305.234-46.972.224-4.618-.007-7.887-2.698-9.875-7.014-.896-1.986-1.407-4.156-2.135-6.218-8.875-24.714-17.662-48.703-26.483-71.875-1.643-4.337-3.672-8.46-5.581-12.591-.173-.363-.823-.578-1.302-.58-.056.003-.145.04-.234.112.417,26.509.843,53.33,1.244,79.686.036,2.646.172,5.283.069,7.913-.328,8.897-2.397,11.191-11.256,11.287-30.627.293-61.945.415-92.561.597-1.531.018-3.101-.174-4.629-.379-2.925-.414-4.641-2.107-4.896-4.472-.379-3.54-.323-7.141-.327-10.709-.03-26.374-.145-51.69-.374-78.011-.135-14.198-.188-30.046-.457-44.176-.264-14.637-.102-29.385-.091-44.084-.005-1.336.124-2.714.412-4.126.757-3.964,3.747-7.585,8.153-9.625,2.461-1.136,4.969-2.015,7.481-2.86,8.009-2.731,16.034-5.43,24.063-8.083,18.714-6.201,37.478-12.207,56.323-17.962.457-.135.906-.291,1.346-.411,7.67-2.342,15.334-4.625,23.027-6.879,5.571-1.613,11.147-2.266,16.726-3.301,4.652-.865,7.312,1.287,8.809,5.583,4.243,12.019,8.74,24.081,12.962,36.532,5.056,14.925,9.926,30.246,14.958,45.73.681,2.064,1.566,4.049,2.636,5.837.373.644,1.541.729,2.394.798.37.03,1.046-.574,1.222-1.012.888-2.176,1.834-4.351,2.415-6.596,6.795-26.355,13.054-53.356,20.331-80.718,7.422-27.983,3.562-26.908,28.827-33.179,7.775-1.924,15.565-3.841,23.373-5.711,1.49-.442,3.011-.814,4.495-1.177,24.467-5.912,49.018-11.459,73.635-16.689.195-.041.416-.089.609-.129,2.095-.452,4.187-.872,6.274-1.326.516-.122.767-.153.858-.187-.043.024-.04.078.897-.016,9.192-.814,11.145,3.882,11.329,12.952.825,39.912,1.871,79.787,2.841,119.676.076,3.33.155,6.637.231,9.973-.035-.006-.071.006-.119.011.914,39.221,1.844,79.324,2.745,118.546Zm-11.129-166.788"/>
  <path d="m751.768,303.748c-8.285,52.868-28.989,88.892-63.354,106.99-18.569,9.824-42.124,17.937-62.102,18.393-8.768.211-12.889-.427-21.648.003-.02-.498-.033.5-.04,0-9.365-.003-14.612.309-23.964.003-21.007-.666-45.545-8.181-65.258-18.151-33.182-16.921-55.028-47.211-64.431-90.655-7.356-34.03-6.749-63.5-.676-98.789,5.916-34.281,26.036-60.349,48.65-80.68,22.086-19.808,46.209-31.655,71.566-37.229,27.217-6.009,54.503-7.863,81.758-7.061,26.343.764,46.565,13.215,67.336,35.91,12.741,13.928,21.497,32.419,27.075,54.275,3.839,15.033,6.686,30.649,7.02,46.955.536,25.33,2.028,44.791-1.933,70.036Zm-113.743-42.297c-1.409-10.038-2.25-14.581-4.215-24.345-3.441-17.202-12.175-26.948-24.403-28.681-7.072-1.015-14.559.567-21.71,2.453-7.547,1.996-13.189,8.637-16.873,18.389-3.228,8.52-5.802,17.222-5.726,26.785.089,12.861.102,20.253.668,33.067.21,4.891,1.255,9.825,2.547,14.423,7.364,26.151,25.102,30.115,43.675,25.527,8.537-2.083,19.33-11.344,22.327-23.5,3.666-14.809,3.732-28.113,3.71-44.119Z"/>
  <path d="m1024.83,121.958c-.165,21.58-.254,43.145-.394,64.712-.035,6.39-.048,12.784-.335,19.154-.297,6.366-2.973,9.584-7.534,9.295-3.161-.213-6.322-.683-9.464-1.385-23.532-5.39-47.221-8.759-71.038-6.886-9.459.724-18.972,2.619-28.291,5.314-14.356,4.171-23.403,17.867-25.752,37.151-2.522,20.637,5.225,42.486,18.18,50.189,7.351,4.355,15.009,6.53,23.071,6.861,29.073,1.171,57.692-4.648,86.287-11.612,2.08-.505,4.096-1.537,6.17-1.971,5.277-1.065,8.303,2.205,8.328,10.224.134,31.16.114,62.315-.122,93.463-.074,9.175-2.305,12.838-8.451,14.484-13.879,3.72-27.77,7.645-41.738,10.184-18.638,3.418-37.32,6.923-56.044,7.848-14.539.707-29.225-1.513-43.726-4.241-12.365-2.344-24.681-5.715-36.713-11.885-15.055-7.711-29.21-17.154-41.764-32.075-5.013-5.962-9.494-12.206-13.15-20.011-27.778-59.247-32.41-121.256-14.966-188.286,5.395-20.718,15.032-38.18,27.196-51.961,19.064-21.626,40.517-35.123,64.088-41.894,20.077-5.772,40.237-6.886,66.95-7.597,25.587-2.215,57.258,4.625,88.977,9.971,7.66,1.294,10.154,5.364,10.588,17.106.285,7.933-.289,15.901-.351,23.849Z"/>
  <path d="m1339.225,307.28c-9.827,50.614-31.597,85.225-66.503,103.228-18.865,9.693-42.683,18.095-62.66,18.61-8.778.22-12.886-.452-21.648-.001-.01-.525-.036.533-.04,0-9.354.007-14.636.325-23.964-.001-20.981-.72-45.308-8.966-64.748-20.552-32.709-19.506-53.829-55.802-62.174-107.981-6.525-40.816-5.182-75.974,1.854-116.403,6.861-39.371,27.918-65.58,51.339-83.599,22.877-17.612,47.553-24.953,73.233-25.237,27.552-.313,54.98,3.906,82.223,10.55,26.318,6.454,46.111,23.297,66.124,49.517,12.269,16.088,20.448,35.574,25.353,57.643,3.377,15.189,5.753,30.657,5.602,46.498-.228,24.617.696,43.545-3.992,67.728Zm-112.357-53.089c-1.099-10.594-1.825-15.445-3.479-25.876-2.913-18.358-11.367-29.825-23.569-33.504-7.057-2.121-14.626-1.594-21.844-.63-7.633,1.007-13.503,7.333-17.482,17.396-3.489,8.813-6.323,17.958-6.541,28.384-.295,14.032-.483,22.096-.307,36.137.066,5.349.97,10.839,2.126,15.962,6.617,29.191,24.243,34.448,42.987,30.848,8.603-1.652,19.689-10.621,23.058-23.059,4.1-15.172,4.594-28.998,5.051-45.659Z"/>
  <path d="m1578.242,402.763c-8.989,6.954-18.568,12.308-28.979,15.506-20.021,6.152-36.759,10.218-57.178,10.882-13.353.666-51.593.026-70.304-2.612-20.96-.306-39.427-6.352-60.032-10.614-7.117-1.472-9.192-4.622-9.05-14.625.289-20.932.876-43.487,1.707-64.396.404-9.94,3.311-13.159,10.39-11.982,15.092,2.521,30.074,10.058,45.092,13.01,11.248,2.229,22.509,3.505,33.816,4.312,12.756.916,25.531,1.214,38.297,1.534,6.345.149,11.307-7.195,11.203-13.014-.068-4.455-4.796-8.819-10.207-9.93-4.649-.956-9.377-1.225-14.098-1.613-19.34-1.623-42.135-2.451-61.188-8.461-8.161-2.575-13.074-5.036-20.777-9.563-25.232-14.792-36.497-43.763-37.709-81.475-.409-12.709.551-25.149,3.12-37.567,7.376-35.975,24.53-56.856,48.771-66.465,18.996-7.544,38.816-9.486,58.845-7.626,13.115,1.222,26.25,4.299,39.361,6.685,18.871,2.88,37.642,6.96,56.31,13.455,13.901,4.847,25.792,7.649,39.615,13.322,7.251,2.975,9.58,5.904,9.481,14.225-.254,21.553-.756,43.044-1.401,64.527-.211,6.682-.485,9.175-5.819,8.484-1.561-.19-3.191-.198-4.672-.836-15.799-6.876-71.283-18.619-101.53-21.173-10.636-.574-16.331,2.44-16.933,3.295-1.328,1.863-3.09,4.08-3.192,6.396-.114,2.318,1.14,5.795,2.579,7.218,2.529,2.497,5.597,4.226,8.602,5.512,2.489,1.062,5.211,1.025,7.813,1.514,21.375,4.065,26.747,4.972,48.063,9.526,13.165,2.82,41.51,13.266,52.119,24.709,14.338,15.502,22.184,32.592,22.644,55.511.761,36.427-9.781,62.986-34.758,82.331Z"/>
  <path d="m1918.673,356.089c-8.778,29.416-29.885,49.733-64.605,61.047-18.741,5.999-42.533,11.667-62.521,12.067-8.783.149-12.881-.322-21.648-.006.002-.374-.048.371-.04,0-9.349-.013-14.615.237-23.964-.004-20.961-.493-45.245-6.59-64.506-15.732-32.45-15.258-52.867-44.876-60.272-87.543-5.774-33.313-3.817-61.861,3.765-93.27,7.399-30.67,28.423-47.783,51.412-56.915,22.466-8.996,46.407-8.897,71.175-3.279,26.57,6.041,52.896,15.518,79.013,26.46,25.236,10.616,44.191,26.496,63.671,47.319,11.942,12.781,20.056,26.37,25.13,40.633,3.487,9.835,6.061,19.496,6.168,28.985.181,14.776,1.402,26.156-2.78,40.237Zm-110.536-46.324c-1.092-7.394-1.785-10.794-3.422-18.187-2.856-12.986-11.084-22.244-22.957-26.745-6.863-2.603-14.227-3.406-21.288-3.832-7.44-.451-13.214,3.235-17.169,10.005-3.469,5.914-6.323,12.257-6.594,19.872-.378,10.236-.632,16.132-.549,26.423.031,3.929.883,8.012,1.99,11.871,6.315,21.972,23.789,26.741,42.299,25.543,8.521-.573,19.439-5.958,22.763-14.174,4.037-10.038,4.489-19.432,4.928-30.776Z"/>
</svg>